{"title":"Rio 2 2014 Blu-Ray 1080p x264 5.1 Ch. Dual Audio [Hindi-Eng] YsB","uid":10484814,"size":4011642964,"categoryP":"video","categoryS":"hd___movies","magnet":"?xt=urn:btih:afafbd5fd05749cd5088de99b6ae623bc616fbb6&amp;dn=Rio+2+2014+Blu-Ray+1080p+x264+5.1+Ch.+Dual+Audio+%5BHindi-Eng%5D+YsB&amp;tr=udp%3A%2F%2Ftracker.openbittorrent.com%3A80&amp;tr=udp%3A%2F%2Fopen.demonii.com%3A1337&amp;tr=udp%3A%2F%2Ftracker.coppersurfer.tk%3A6969&amp;tr=udp%3A%2F%2Fexodus.desync.com%3A6969","seeders":2,"leechers":0,"uploader":"Dj_YsB","files":8,"time":1404456406,"description":"Rio 2 2014 Blu-Ray 1080p x264 5.1 Ch. Dual Audio [Hindi-Eng] YsB TeaM SSX\n &lt;a href=&quot;\nhttp://i.imgur.com/jdNg8Vn.jpg&quot; rel=&quot;nofollow&quot; target=&quot;_NEW&quot;&gt;\nhttp://i.imgur.com/jdNg8Vn.jpg&lt;/a&gt;\n\nInfo:\nGeneral\nComplete name                            : Rio 2 2014 Blu-Ray 1080p x264 5.1 Ch. Dual Audio [Hindi-Eng] YsB TeaM SSX.mkv\nFormat                                   : Matroska\nFile size                                : 3.67 GiB\nDuration                                 : 1h 41mn\nOverall bit rate                         : 5 196 Kbps\nMovie name                               : Rio 2 2014 Blu-Ray 1080p x264 5.1 Ch. Dual Audio [Hindi-Eng] YsB TeaM SSX\n\nVideo\nID                                       : 1\nFormat                                   : AVC\nDuration                                 : 1h 41mn\nBit rate                                 : 4 096 Kbps\nWidth                                    : 1 920 pixels\nHeight                                   : 800 pixels\nDisplay aspect ratio                     : 2.40:1\nFrame rate mode                          : Constant\nFrame rate                               : 23.976 fps\nStream size                              : 2.83 GiB (77%)\nTitle                                    : YsB TeaM SSX\n\n\nAudio\nID                                       : 2\nFormat                                   : AC-3\nDuration                                 : 1h 41mn\nBit rate mode                            : Constant\nBit rate                                 : 448 Kbps\nChannel(s)                               : 6 channels\nChannel positions                        : Front: L C R, Side: L R, LFE\nSampling rate                            : 48.0 KHz\nStream size                              : 324 MiB (9%)\nTitle                                    : YsB TeaM SSX\nLanguage                                 : Hindi/English\n\n\nText\nID                                       : 4\nFormat                                   : PGS\nMuxing mode                              : zlib\nCodec ID                                 : S_HDMV/PGS\nCodec ID/Info                            : The same subtitle format used on BDs/HD-DVDs\nTitle                                    : YsB TeaM SSX\nLanguage                                 : English\nDefault                                  : No\nForced                                   : No\n\nMenu\n00:00:00.000                             : en:Chapter 1\n00:03:10.816                             : en:Chapter 2\n00:05:14.314                             : en:Chapter 3\n00:08:49.362                             : en:Chapter 4\n00:13:02.240                             : en:Chapter 5\n00:17:36.305                             : en:Chapter 6\n00:19:19.408                             : en:Chapter 7\n00:22:30.349                             : en:Chapter 8\n00:26:48.690                             : en:Chapter 9\n00:29:00.155                             : en:Chapter 10\n00:30:59.691                             : en:Chapter 11\n00:33:46.566                             : en:Chapter 12\n00:36:34.192                             : en:Chapter 13\n00:39:20.233                             : en:Chapter 14\n00:41:32.657                             : en:Chapter 15\n00:45:05.119                             : en:Chapter 16\n00:47:23.090                             : en:Chapter 17\n00:49:58.162                             : en:Chapter 18\n00:52:05.456                             : en:Chapter 19\n00:55:38.919                             : en:Chapter 20\n00:58:10.904                             : en:Chapter 21\n01:02:11.394                             : en:Chapter 22\n01:04:38.083                             : en:Chapter 23\n01:07:03.937                             : en:Chapter 24\n01:09:18.196                             : en:Chapter 25\n01:10:21.342                             : en:Chapter 26\n01:15:17.763                             : en:Chapter 27\n01:17:00.157                             : en:Chapter 28\n01:21:41.855                             : en:Chapter 29\n01:25:24.619                             : en:Chapter 30\n01:29:42.711                             : en:Chapter 31\n01:32:27.959                             : en:Chapter 32\n\n\nScreenShot: &lt;a href=&quot;\nhttp://i.imgur.com/fujmpHz.jpg&quot; rel=&quot;nofollow&quot; target=&quot;_NEW&quot;&gt;\nhttp://i.imgur.com/fujmpHz.jpg&lt;/a&gt; &lt;a href=&quot;\nhttp://i.imgur.com/zXhhZI1.jpg&quot; rel=&quot;nofollow&quot; target=&quot;_NEW&quot;&gt;\nhttp://i.imgur.com/zXhhZI1.jpg&lt;/a&gt; &lt;a href=&quot;\nhttp://i.imgur.com/jbR0cEH.jpg&quot; rel=&quot;nofollow&quot; target=&quot;_NEW&quot;&gt;\nhttp://i.imgur.com/jbR0cEH.jpg&lt;/a&gt;\n\nThanks\nGPSoft, HDDR...\nTeaM SSX - Maverick Dude, Hari, Hemkumar, Sajan...","torrent":{"xt":"urn:btih:afafbd5fd05749cd5088de99b6ae623bc616fbb6","amp;dn":"Rio+2+2014+Blu-Ray+1080p+x264+5.1+Ch.+Dual+Audio+%5BHindi-Eng%5D+YsB","amp;tr":["udp%3A%2F%2Ftracker.openbittorrent.com%3A80","udp%3A%2F%2Fopen.demonii.com%3A1337","udp%3A%2F%2Ftracker.coppersurfer.tk%3A6969","udp%3A%2F%2Fexodus.desync.com%3A6969"],"infoHash":"afafbd5fd05749cd5088de99b6ae623bc616fbb6","infoHashBuffer":{"type":"Buffer","data":[175,175,189,95,208,87,73,205,80,136,222,153,182,174,98,59,198,22,251,182]},"announce":[],"urlList":[]}}